<svg xmlns="http://www.w3.org/2000/svg" width="43" height="43" viewBox="0 0 43 43">
  <g id="Group_5" data-name="Group 5" transform="translate(-1425.357 -12.357)">
    <circle id="Ellipse_1" data-name="Ellipse 1" cx="21.5" cy="21.5" r="21.5" transform="translate(1425.357 12.357)" fill="#606d77"/>
    <path id="iconmonstr-user-6" d="M9.516,1.586A3.965,3.965,0,1,1,5.551,5.552,3.97,3.97,0,0,1,9.516,1.586ZM9.516,0a5.551,5.551,0,1,0,5.551,5.552A5.551,5.551,0,0,0,9.516,0Zm5.05,10.589a7.182,7.182,0,0,1-1.315,1.032,10.135,10.135,0,0,1,3.943,5.825H1.821a9.809,9.809,0,0,1,3.943-5.835,7.143,7.143,0,0,1-1.315-1.04A11.663,11.663,0,0,0,0,19.031H19.031A11.914,11.914,0,0,0,14.566,10.589Z" transform="translate(1437.707 23.243)" fill="#fff"/>
  </g>
</svg>
